<svg xmlns="http://www.w3.org/2000/svg" viewBox="0 0 200 200" width="200" height="200">
  <!-- Background Circle -->
  <circle cx="100" cy="100" r="90" fill="#F7F7F7" />

  <!-- Airplane Icon -->
  <path
    d="M50 100l47-35 8 4-4-9v-9l4-3-8 4-47 35zM58 70h-5l-3-9h-6l7 5-3 4-5-3-3-3-3 3-5 3 7-5h-6l-3 9h-5l-8 6v5l5 2-2 5 5-2 5 3v8l3 1-3 6 8-4 5 3 3-6-4-1 1-6 4-2 5 2-2-5 6-4-8-5z"
    fill="#007ACC"
  />

  <!-- Text: "Travelly" -->
  <text x="50%" y="55%" font-size="24" font-weight="bold" text-anchor="middle" fill="#333">
    Travelly
  </text>
</svg>